<svg   fill="none" height="36" viewBox="0 0 32 32" width="36"   xmlns="http://www.w3.org/2000/svg" version="1.1" xmlns:xlink="http://www.w3.org/1999/xlink" xmlns:svgjs="http://svgjs.dev/svgjs" width="1500" height="4133" viewBox="0 0 1500 4133"><g transform="matrix(1,0,0,1,-1.1396315741365015,-6.666129032258141)"><svg viewBox="0 0 90 248" data-background-color="#fffff5" preserveAspectRatio="xMidYMid meet" height="4133" width="1500" xmlns="http://www.w3.org/2000/svg" xmlns:xlink="http://www.w3.org/1999/xlink"><g id="tight-bounds" transform="matrix(1,0,0,1,0.06837789444819009,0.4000000000000057)"><svg viewBox="0 0 89.86324421110362 247.2" height="247.2" width="89.86324421110362"><g><svg viewBox="0 0 149.397247706422 410.9689112299406" height="247.2" width="89.86324421110362"><g transform="matrix(1,0,0,1,0,163.7689112299406)"><svg viewBox="0 0 149.397247706422 247.2" height="247.2" width="149.397247706422"><g id="textblocktransform"><svg viewBox="0 0 149.397247706422 247.2" height="247.2" width="149.397247706422" id="textblock"><g><svg viewBox="0 0 149.397247706422 247.2" height="247.2" width="149.397247706422"><g transform="matrix(1,0,0,1,0,0)"><svg width="149.397247706422" viewBox="0.4 -37.9 26.35 43.6" height="247.2" data-palette-color="#091627"><path d="M3.25 5.7Q1.6 5.7 0.4 5.45L0.4 5.45 0.4 1.15Q1.4 1.35 2.8 1.35L2.8 1.35Q4.05 1.35 4.67 0.93 5.3 0.5 5.58-0.63 5.85-1.75 5.85-3.95L5.85-3.95 5.85-37.9 10.7-37.9 10.7-3.65Q10.7 0.15 10.05 2.13 9.4 4.1 7.85 4.9 6.3 5.7 3.25 5.7L3.25 5.7ZM19.3 5.7Q17.65 5.7 16.45 5.45L16.45 5.45 16.45 1.15Q17.45 1.35 18.85 1.35L18.85 1.35Q20.1 1.35 20.72 0.93 21.35 0.5 21.62-0.63 21.9-1.75 21.9-3.95L21.9-3.95 21.9-37.9 26.75-37.9 26.75-3.65Q26.75 0.15 26.1 2.13 25.45 4.1 23.9 4.9 22.35 5.7 19.3 5.7L19.3 5.7Z" opacity="1" transform="matrix(1,0,0,1,0,0)" fill="#091627" class="wordmark-text-0" data-fill-palette-color="primary" id="text-0"></path></svg></g></svg></g></svg></g></svg></g><g transform="matrix(1,0,0,1,51.172155438240694,0)"><svg viewBox="0 0 47.05293682994061 47.05293682994061" height="47.05293682994061" width="47.05293682994061"><g><svg></svg></g><g id="icon-0"><svg viewBox="0 0 47.05293682994061 47.05293682994061" height="47.05293682994061" width="47.05293682994061"><g><path d="M0 23.526c0-12.993 10.533-23.526 23.526-23.526 12.993 0 23.526 10.533 23.527 23.526 0 12.993-10.533 23.526-23.527 23.527-12.993 0-23.526-10.533-23.526-23.527zM23.526 24.76c0.681 0 1.234-0.552 1.234-1.234 0-0.681-0.552-1.234-1.234-1.233-0.681 0-1.234 0.552-1.233 1.233 0 0.681 0.552 1.234 1.233 1.234z" data-fill-palette-color="accent" fill="#dad603" stroke="transparent"></path></g><g transform="matrix(1,0,0,1,45.534999179730725,42.512073984294865)"><svg viewBox="0 0 -44.01706152952084 -37.97121113864912" height="-37.97121113864912" width="-44.01706152952084"><g><svg xmlns="http://www.w3.org/2000/svg" xmlns:xlink="http://www.w3.org/1999/xlink" version="1.1" x="0" y="0" viewBox="0.507 7.136 98.51299999999999 84.982" enable-background="new 0 0 100 100" xml:space="preserve" height="-37.97121113864912" width="-44.01706152952084" class="icon-dxe-0" data-fill-palette-color="accent" id="dxe-0"><g fill="#dad603" data-fill-palette-color="accent"><path d="M22.048 42.728L25.829 47.455 38.642 65.239A0.42 0.42 0 0 0 38.849 65.402L23.004 90.852 15.187 44.39zM0.507 55.422A0.9 0.9 0 0 1 0.708 54.928L12.118 40.129A0.635 0.635 0 0 1 12.785 39.889L21.121 41.797C21.362 41.887 21.356 41.907 21.425 41.978L14.778 43.589C14.538 43.65 14.484 43.67 14.343 43.778zM19.537 87.812L15.759 82.927A0.4 0.4 0 0 1 15.694 82.816L18.169 81.769zM21.713 88.462C21.429 88.598 21.039 88.784 20.647 88.749L18.907 81.064C18.842 80.779 18.578 80.646 18.309 80.757L15.982 81.742C16.602 80.805 17.908 79.713 18.311 79.263L13.357 50.91 1.485 55.936A1.1 1.1 0 0 1 1.16 56.018L14.382 44.89zM37.129 61.631L46.048 53.846 39.311 64.665zM39.486 86.967L23.765 92.118C30.733 86.326 39.638 78.907 47.736 72.148zM98.23 86.475L40.604 86.768 49.525 70.742zM99.02 85.784L50.25 70.055A46403 46403 0 0 0 69.246 54.201zM49.038 69.889A0.4 0.4 0 0 0 48.934 70.001 13656 13656 0 0 1 24.16 90.65L46.208 55.246zM60.498 60.363L49.812 69.277 47.014 54.795zM55.514 57.355L47.55 54.066 56.358 55.515zM79.921 8.222C79.813 9.295 74.361 58.34 74.361 58.34L69.605 53.3A0.464 0.464 0 0 0 69.001 53.262L61.246 59.737C61.207 59.702 56.319 57.694 56.319 57.694L63.139 42.826C63.143 42.824 79.249 9.773 79.921 8.222M32.224 7.136C32.33 7.194 32.434 7.285 32.531 7.413L60.976 45.447 56.734 54.694 45.979 52.923A0.9 0.9 0 0 0 45.62 53.027L43.274 55.084zM26.009 46.159L31.351 7.717C31.364 7.633 31.381 7.557 31.407 7.489L42.525 55.736 36.616 60.917z" fill="#dad603" data-fill-palette-color="accent"></path></g></svg></g></svg></g></svg></g></svg></g><g></g></svg></g><defs></defs></svg><rect width="89.86324421110362" height="247.2" fill="none" stroke="none" visibility="hidden"></rect></g></svg></g></svg>